<?xml version="1.0" encoding="iso-8859-1"?>
<!-- Uploaded to: SVG Repo, www.svgrepo.com, Generator: SVG Repo Mixer Tools -->
<svg fill="#000000" height="800px" width="800px" version="1.1" id="Layer_1" xmlns="http://www.w3.org/2000/svg" xmlns:xlink="http://www.w3.org/1999/xlink" 
	 viewBox="0 0 512.001 512.001" xml:space="preserve">
<g>
	<g>
		<path d="M366.412,0H145.589c-42.717,0-77.469,34.753-77.469,77.47v357.061c0,42.717,34.753,77.47,77.469,77.47h220.822
			c42.717,0,77.469-34.753,77.469-77.47V77.47C443.882,34.753,409.129,0,366.412,0z M366.413,470.658H145.589
			c-19.921,0-36.126-16.207-36.126-36.127V77.47c0-19.921,16.205-36.127,36.126-36.127h220.822
			c19.921,0,36.126,16.207,36.126,36.127v357.061h0.001C402.539,454.452,386.332,470.658,366.413,470.658z"/>
	</g>
</g>
<g>
	<g>
		<path d="M256.001,79.302c-40.968,0-74.299,33.331-74.299,74.299c0,40.968,33.331,74.298,74.299,74.298
			c40.97,0,74.299-33.331,74.299-74.298C330.3,112.631,296.969,79.302,256.001,79.302z M256.001,186.556
			c-18.172,0-32.956-14.784-32.956-32.955c0-18.173,14.784-32.956,32.956-32.956c18.172,0,32.956,14.784,32.956,32.956
			C288.957,171.773,274.172,186.556,256.001,186.556z"/>
	</g>
</g>
<g>
	<g>
		<path d="M256.001,246.375c-52.185,0-94.639,42.455-94.639,94.64c0,52.185,42.455,94.64,94.639,94.64s94.639-42.455,94.639-94.64
			C350.639,288.831,308.186,246.375,256.001,246.375z M256.001,394.312c-29.388,0-53.296-23.909-53.296-53.297
			c0-29.388,23.909-53.297,53.296-53.297s53.296,23.909,53.296,53.297C309.296,370.404,285.389,394.312,256.001,394.312z"/>
	</g>
</g>
</svg>