<?xml version="1.0" encoding="UTF-8"?>
<!DOCTYPE svg PUBLIC "-//W3C//DTD SVG 1.1//EN" "http://www.w3.org/Graphics/SVG/1.1/DTD/svg11.dtd">
<svg xmlns="http://www.w3.org/2000/svg" version="1.1" width="640px" height="480px" style="shape-rendering:geometricPrecision; text-rendering:geometricPrecision; image-rendering:optimizeQuality; fill-rule:evenodd; clip-rule:evenodd" xmlns:xlink="http://www.w3.org/1999/xlink">
<g><path style="opacity:1" fill="#cbcbcb" d="M -0.5,-0.5 C 212.833,-0.5 426.167,-0.5 639.5,-0.5C 639.5,159.5 639.5,319.5 639.5,479.5C 426.167,479.5 212.833,479.5 -0.5,479.5C -0.5,319.5 -0.5,159.5 -0.5,-0.5 Z"/></g>
<g><path style="opacity:1" fill="#919191" d="M 211.5,194.5 C 215.167,194.5 218.833,194.5 222.5,194.5C 222.5,223.167 222.5,251.833 222.5,280.5C 213.649,283.681 204.649,284.181 195.5,282C 190.219,278.618 187.052,273.784 186,267.5C 185.333,258.5 185.333,249.5 186,240.5C 187.212,233.573 190.379,227.74 195.5,223C 199.781,220.891 203.948,221.058 208,223.5C 208.333,214.833 208.667,206.167 209,197.5C 210.045,196.627 210.878,195.627 211.5,194.5 Z"/></g>
<g><path style="opacity:1" fill="#909090" d="M 72.5,198.5 C 104.938,194.693 116.104,208.359 106,239.5C 101.255,246.955 94.4215,250.289 85.5,249.5C 85.6665,260.172 85.4998,270.839 85,281.5C 80.9341,282.464 76.7675,282.797 72.5,282.5C 72.5,254.5 72.5,226.5 72.5,198.5 Z"/></g>
<g><path style="opacity:1" fill="#919191" d="M 360.5,198.5 C 364.5,198.5 368.5,198.5 372.5,198.5C 372.667,226.169 372.5,253.835 372,281.5C 367.599,282.467 363.099,282.8 358.5,282.5C 358.333,255.165 358.5,227.831 359,200.5C 359.717,199.956 360.217,199.289 360.5,198.5 Z"/></g>
<g><path style="opacity:1" fill="#909090" d="M 334.5,233.5 C 331.5,233.5 328.5,233.5 325.5,233.5C 325.172,245.678 325.505,257.678 326.5,269.5C 328.766,271.763 331.433,272.096 334.5,270.5C 335.657,273.784 335.824,277.118 335,280.5C 328.971,284.204 322.805,284.371 316.5,281C 314.205,278.243 313.205,275.077 313.5,271.5C 313.5,258.833 313.5,246.167 313.5,233.5C 310.833,233.5 308.167,233.5 305.5,233.5C 305.335,230.15 305.502,226.817 306,223.5C 308.041,222.577 310.208,222.244 312.5,222.5C 312.334,215.825 312.5,209.158 313,202.5C 313.5,202 314,201.5 314.5,201C 318.486,200.501 322.486,200.334 326.5,200.5C 326.5,207.833 326.5,215.167 326.5,222.5C 329.5,222.5 332.5,222.5 335.5,222.5C 335.815,226.371 335.482,230.038 334.5,233.5 Z"/></g>
<g><path style="opacity:1" fill="#cbcbcb" d="M 85.5,210.5 C 87.7925,210.244 89.9592,210.577 92,211.5C 93.9302,219.461 93.9302,227.461 92,235.5C 90.2111,237.229 88.0444,237.896 85.5,237.5C 85.5,228.5 85.5,219.5 85.5,210.5 Z"/></g>
<g><path style="opacity:1" fill="#919191" d="M 125.5,221.5 C 137.071,219.069 141.404,223.402 138.5,234.5C 135.421,234.26 132.421,234.593 129.5,235.5C 128.667,250.822 128.167,266.156 128,281.5C 123.599,282.467 119.099,282.8 114.5,282.5C 114.333,263.83 114.5,245.164 115,226.5C 118.404,224.379 121.904,222.712 125.5,221.5 Z"/></g>
<g><path style="opacity:1" fill="#919191" d="M 156.5,221.5 C 169.081,219.36 176.915,224.36 180,236.5C 181.139,248.631 180.472,260.631 178,272.5C 172.869,281.812 165.036,285.312 154.5,283C 147.415,280.36 143.582,275.193 143,267.5C 142.101,257.107 142.434,246.773 144,236.5C 146.242,229.77 150.408,224.77 156.5,221.5 Z"/></g>
<g><path style="opacity:1" fill="#919191" d="M 287.5,221.5 C 291.936,221.21 296.27,221.71 300.5,223C 303.797,226.278 304.464,230.111 302.5,234.5C 299.998,234.251 297.498,233.917 295,233.5C 290.516,233.645 287.85,235.978 287,240.5C 286.833,244.833 286.667,249.167 286.5,253.5C 283.228,267.888 288.561,273.555 302.5,270.5C 303.931,280.322 299.598,284.656 289.5,283.5C 280.212,283.384 274.712,278.717 273,269.5C 272.091,258.108 272.424,246.775 274,235.5C 275.413,232.339 277.08,229.339 279,226.5C 281.682,224.415 284.516,222.748 287.5,221.5 Z"/></g>
<g><path style="opacity:1" fill="#909090" d="M 392.5,221.5 C 398.345,220.963 403.845,221.963 409,224.5C 416.321,221.318 423.821,220.818 431.5,223C 433.359,224.558 434.859,226.391 436,228.5C 436.667,246.167 436.667,263.833 436,281.5C 431.934,282.464 427.767,282.797 423.5,282.5C 423.667,266.83 423.5,251.163 423,235.5C 420.894,233.709 418.394,233.042 415.5,233.5C 415.667,249.503 415.5,265.503 415,281.5C 410.599,282.467 406.099,282.8 401.5,282.5C 401.5,266.167 401.5,249.833 401.5,233.5C 398.881,233.232 396.381,233.565 394,234.5C 393.667,250.167 393.333,265.833 393,281.5C 388.934,282.464 384.767,282.797 380.5,282.5C 380.333,263.497 380.5,244.497 381,225.5C 384.712,223.483 388.545,222.15 392.5,221.5 Z"/></g>
<g><path style="opacity:1" fill="#909090" d="M 454.5,221.5 C 460.245,221.211 465.912,221.711 471.5,223C 474,224.167 475.833,226 477,228.5C 477.667,245.5 477.667,262.5 477,279.5C 448.028,289.841 437.695,280.174 446,250.5C 451.221,245.109 457.221,244.109 464,247.5C 464.667,243.833 464.667,240.167 464,236.5C 463.5,236 463,235.5 462.5,235C 456.39,234.268 450.39,234.768 444.5,236.5C 443.352,232.814 443.352,229.147 444.5,225.5C 447.786,223.855 451.119,222.522 454.5,221.5 Z"/></g>
<g><path style="opacity:1" fill="#919191" d="M 499.5,221.5 C 508.163,221.98 516.83,222.48 525.5,223C 526.617,226.073 526.784,229.24 526,232.5C 524.509,234.004 522.676,234.837 520.5,235C 527.019,254.46 520.019,264.627 499.5,265.5C 498.289,266.72 498.289,267.887 499.5,269C 506.982,269.3 513.982,271.133 520.5,274.5C 521.861,276.028 523.028,277.695 524,279.5C 526.392,297.106 518.725,306.106 501,306.5C 486.895,306.742 481.229,300.076 484,286.5C 485.711,283.745 487.878,281.411 490.5,279.5C 485.407,277.917 483.573,274.583 485,269.5C 486.977,266.688 489.144,264.022 491.5,261.5C 483.142,250.825 482.309,239.492 489,227.5C 492.069,224.554 495.569,222.554 499.5,221.5 Z"/></g>
<g><path style="opacity:1" fill="#919191" d="M 545.5,221.5 C 560.766,220.099 567.766,227.099 566.5,242.5C 566.515,247.799 565.849,252.966 564.5,258C 557.844,258.711 551.178,259.211 544.5,259.5C 543.892,267.729 547.559,271.229 555.5,270C 558.824,269.057 562.157,268.224 565.5,267.5C 565.665,271.182 565.499,274.848 565,278.5C 557.482,283.673 549.316,284.839 540.5,282C 534.937,278.386 531.77,273.219 531,266.5C 530.333,257.833 530.333,249.167 531,240.5C 532.373,231.32 537.206,224.987 545.5,221.5 Z"/></g>
<g><path style="opacity:1" fill="#919191" d="M 230.5,222.5 C 234.833,222.5 239.167,222.5 243.5,222.5C 243.333,238.17 243.5,253.837 244,269.5C 246.418,271.68 249.084,272.013 252,270.5C 252.333,254.833 252.667,239.167 253,223.5C 257.066,222.536 261.233,222.203 265.5,222.5C 265.833,241.512 265.5,260.512 264.5,279.5C 255.32,283.989 245.986,284.489 236.5,281C 232.721,278.543 230.554,275.043 230,270.5C 229.183,254.426 229.35,238.426 230.5,222.5 Z"/></g>
<g><path style="opacity:1" fill="#c9c9c9" d="M 501.5,231.5 C 503.527,231.338 505.527,231.505 507.5,232C 510.216,239.181 510.049,246.348 507,253.5C 503.914,255.22 501.581,254.553 500,251.5C 498.962,244.628 499.462,237.962 501.5,231.5 Z"/></g>
<g><path style="opacity:1" fill="#c8c8c8" d="M 159.5,233.5 C 163.421,232.93 165.588,234.597 166,238.5C 166.795,248.54 166.462,258.54 165,268.5C 163.091,273.316 160.758,273.649 158,269.5C 157.333,258.5 157.333,247.5 158,236.5C 158.513,235.473 159.013,234.473 159.5,233.5 Z"/></g>
<g><path style="opacity:1" fill="#cacaca" d="M 203.5,233.5 C 205.167,233.5 206.833,233.5 208.5,233.5C 208.667,245.838 208.5,258.171 208,270.5C 204.057,272.251 201.723,270.918 201,266.5C 200.333,257.5 200.333,248.5 201,239.5C 201.573,237.359 202.406,235.359 203.5,233.5 Z"/></g>
<g><path style="opacity:1" fill="#c9c9c9" d="M 547.5,233.5 C 549.766,233.141 551.599,233.808 553,235.5C 553.667,239.5 553.667,243.5 553,247.5C 550.281,248.444 547.448,248.777 544.5,248.5C 543.773,243.035 544.773,238.035 547.5,233.5 Z"/></g>
<g><path style="opacity:1" fill="#a2a2a2" d="M 305.5,233.5 C 308.167,233.5 310.833,233.5 313.5,233.5C 313.5,246.167 313.5,258.833 313.5,271.5C 312.505,259.345 312.171,247.011 312.5,234.5C 309.941,234.802 307.607,234.468 305.5,233.5 Z"/></g>
<g><path style="opacity:1" fill="#a3a3a3" d="M 334.5,233.5 C 332.052,234.473 329.385,234.806 326.5,234.5C 326.5,246.167 326.5,257.833 326.5,269.5C 325.505,257.678 325.172,245.678 325.5,233.5C 328.5,233.5 331.5,233.5 334.5,233.5 Z"/></g>
<g><path style="opacity:1" fill="#c9c9c9" d="M 459.5,255.5 C 461.144,255.286 462.644,255.62 464,256.5C 464.829,261.533 464.662,266.533 463.5,271.5C 461.261,273.12 459.427,272.787 458,270.5C 456.955,265.215 457.455,260.215 459.5,255.5 Z"/></g>
<g><path style="opacity:1" fill="#c9c9c9" d="M 500.5,281.5 C 504.459,281.071 507.959,282.071 511,284.5C 511.502,292.653 507.669,295.82 499.5,294C 495.531,289.624 495.864,285.457 500.5,281.5 Z"/></g>
</svg>
